<svg xmlns="http://www.w3.org/2000/svg" viewBox="0 0 900 520" font-family="Arial" font-size="14"><rect width="900" height="520" fill="#fff"/><rect x="40" y="40" width="230" height="82" fill="#f4f7fb" stroke="#1f3a5f" stroke-width="2"/><rect x="40" y="40" width="230" height="30" fill="#1f3a5f"/><text x="155" y="60" fill="#fff" text-anchor="middle" font-weight="bold">CATEGORIAS</text><text x="50" y="92">PK id</text><text x="50" y="116">nome (único)</text><rect x="330" y="40" width="230" height="202" fill="#f4f7fb" stroke="#1f3a5f" stroke-width="2"/><rect x="330" y="40" width="230" height="30" fill="#1f3a5f"/><text x="445" y="60" fill="#fff" text-anchor="middle" font-weight="bold">PRODUTOS</text><text x="340" y="92">PK id</text><text x="340" y="116">nome</text><text x="340" y="140">FK categoria_id</text><text x="340" y="164">especificacoes</text><text x="340" y="188">preco</text><text x="340" y="212">quantidade</text><text x="340" y="236">estoque_minimo</text><rect x="620" y="40" width="230" height="202" fill="#f4f7fb" stroke="#1f3a5f" stroke-width="2"/><rect x="620" y="40" width="230" height="30" fill="#1f3a5f"/><text x="735" y="60" fill="#fff" text-anchor="middle" font-weight="bold">MOVIMENTACOES</text><text x="630" y="92">PK id</text><text x="630" y="116">FK produto_id</text><text x="630" y="140">FK usuario_id</text><text x="630" y="164">tipo (ENTRADA/SAIDA)</text><text x="630" y="188">quantidade</text><text x="630" y="212">data_hora</text><text x="630" y="236">observacao</text><rect x="620" y="330" width="230" height="130" fill="#f4f7fb" stroke="#1f3a5f" stroke-width="2"/><rect x="620" y="330" width="230" height="30" fill="#1f3a5f"/><text x="735" y="350" fill="#fff" text-anchor="middle" font-weight="bold">USUARIOS</text><text x="630" y="382">PK id</text><text x="630" y="406">nome</text><text x="630" y="430">login (único)</text><text x="630" y="454">senha_hash</text><line x1="270" y1="80" x2="330" y2="80" stroke="#c92a2a" stroke-width="2"/><text x="270" y="74" fill="#c92a2a" font-weight="bold">1</text><text x="316" y="74" fill="#c92a2a" font-weight="bold">N</text><line x1="560" y1="80" x2="620" y2="80" stroke="#c92a2a" stroke-width="2"/><text x="560" y="74" fill="#c92a2a" font-weight="bold">1</text><text x="606" y="74" fill="#c92a2a" font-weight="bold">N</text><line x1="735" y1="246" x2="735" y2="330" stroke="#c92a2a" stroke-width="2"/><text x="741" y="262" fill="#c92a2a" font-weight="bold">N</text><text x="735" y="324" fill="#c92a2a" font-weight="bold">1</text><text x="272" y="100" font-size="12">classifica</text><text x="565" y="100" font-size="12">possui</text><text x="745" y="300" font-size="12">realiza</text><text x="40" y="490" font-size="16" font-weight="bold">DER — Controle de Estoque (1 = um, N = muitos)</text></svg>